<?xml version="1.0" encoding="UTF-8" standalone="no"?>
<svg width="362px" height="155px" viewBox="0 0 362 155" version="1.1" xmlns="http://www.w3.org/2000/svg" xmlns:xlink="http://www.w3.org/1999/xlink" xmlns:sketch="http://www.bohemiancoding.com/sketch/ns">
    <!-- Generator: Sketch 3.3.2 (12043) - http://www.bohemiancoding.com/sketch -->
    <title>Path 1</title>
    <desc>Created with Sketch.</desc>
    <defs></defs>
    <g id="Page-1" stroke="none" stroke-width="1" fill="none" fill-rule="evenodd" sketch:type="MSPage">
        <path d="M0.01171875,41.46875 C18.3945312,41.46875 36.899915,43.5880384 55.1601562,41.46875 C99.8449475,36.2826215 53.3851227,-1.15028876 29.8007812,9.1640625 C27.254954,10.2774519 28.6816494,14.9566918 29.8007812,17.5 C32.6341319,23.9389946 39.4211793,28.4300427 41.265625,35.21875 C44.9936866,48.9403356 44.2566441,63.5024447 46.1289062,77.5976562 C46.2312667,78.3682707 46.3977128,79.6129025 47.171875,79.6835938 C71.7161981,81.9248161 104.030711,51.9742203 118.691406,34.8710937 C123.578374,29.1699707 137.60114,9.80575307 132.238281,2.5625 C127.53798,-3.78588117 120.894381,18.1515339 120.816406,20.28125 C120.223273,36.481333 119.124039,52.7917057 120.816406,68.9140625 C122.331915,83.3515772 133.147198,88.9900504 127.070313,103.304688 C125.077176,107.999695 121.522132,112.191985 117.34375,115.117188 C113.864294,117.553086 94.4135452,124.495576 89.203125,119.285156 C76.9239272,107.005958 111.105843,85.1102792 114.214844,83.15625 C140.699341,66.5105532 163.645866,71.0442669 188.210938,49.1132812 C194.319195,43.6600054 216.372426,23.9375297 210.09375,12.6367188 C206.771348,6.65682229 196.353326,12.6033787 189.597656,13.6796875 C153.958094,19.3577589 135.473965,33.719964 165.628906,65.09375 C174.7561,74.589859 211.899273,59.7387373 216,73.7773438 C218.337649,81.7801532 217.346622,90.5612941 216,98.7890625 C214.712277,106.656964 207.074977,119.248904 198.285156,121.371094 C190.400933,123.274639 177.009014,133.18846 174.3125,125.539062 L172.230469,125.539062 C168.559747,115.126059 185.713735,100.902891 190.988281,96.703125 C211.703742,80.2087992 260.106398,56.7817326 268.457031,26.1835938 C272.525625,11.2755758 234.765257,31.2119758 229.9375,37.6484375 C228.285427,39.851014 225.398523,44.3903104 227.851562,45.640625 C235.276113,49.4249198 260.12624,42.3420552 263.285156,58.1445312 C264.034276,61.8920047 264.350146,65.9391524 263.285156,69.609375 C262.183879,73.4046511 253.393034,78.1500117 257.035156,79.6835938 C267.071401,83.9095374 278.817341,80.0750619 289.6875,80.7265625 C290.46291,80.7730365 291.467233,81.0517207 291.773438,81.765625 C292.275923,82.9371495 292.307405,84.4323295 291.773438,85.5898438 C290.841732,87.6095567 289.378473,89.4577363 287.605469,90.8007812 C277.851042,98.189726 267.712594,105.080065 257.382812,111.640625 C223.416092,133.213269 193.429642,151.45077 152.816406,153.675781 C136.166895,154.587931 119.418347,154.954472 102.792969,153.675781 C100.833955,153.52511 99.259924,151.367196 98.625,149.507812 C97.5372588,146.322347 96.8401126,142.618433 97.9296875,139.433594 C102.575294,125.854437 174.964128,122.915515 179.21875,122.757812 C188.647136,122.408338 227.556711,122.360558 241.75,123.800781 C281.25889,127.809832 326.689729,141.900337 361.945312,115.464844" id="Path-1" stroke="#979797" sketch:type="MSShapeGroup"></path>
    </g>
</svg>