<?xml version="1.0" encoding="utf-8"?>
<!-- Generator: Adobe Illustrator 18.1.1, SVG Export Plug-In . SVG Version: 6.00 Build 0)  -->
<svg version="1.1" id="Слой_1" xmlns="http://www.w3.org/2000/svg" xmlns:xlink="http://www.w3.org/1999/xlink" x="0px" y="0px"
	 viewBox="0 0 100 100" enable-background="new 0 0 100 100" xml:space="preserve">
<g>
	<g>
		<path fill="#0D0F0F" d="M50,28.2c-13.9,0-25.1,11.4-25.1,25.5c0,19,13.3,21.2,13.9,31.3l0,0l0.6,5.8c0.9,4.9,5.1,8.9,10.3,8.9
			c5.1,0,9.4-3.7,10.3-8.9l0.6-5.8l0,0c0.9-10.1,13.9-12.6,13.9-31.3C75.1,39.6,63.9,28.2,50,28.2z M50,86.5c0.9-5.5-3-19.3,0-28.8
			c-5.7,9.8-2.4,24.9-3,24.2c-6.9-9.5-13.9-24.2,3-40.5C55.7,50,69.3,66.6,50,86.5z"/>
		<path fill="#0D0F0F" d="M19.2,51.5c0-1.2-0.9-2.1-2.1-2.1H2c-1.2,0-2.1,0.9-2.1,2.1c0,1.2,0.9,2.1,2.1,2.1h15.1
			C18.3,54,19.2,52.8,19.2,51.5z"/>
		<path fill="#0D0F0F" d="M98,49.4H82.9c-1.2,0-2.1,0.9-2.1,2.1s0.9,2.1,2.1,2.1H98c1.2,0,2.1-0.9,2.1-2.1
			C100.4,50.3,99.5,49.4,98,49.4z"/>
		<path fill="#0D0F0F" d="M20.4,66.3L7.1,73.9c-1.2,0.6-1.5,2.1-0.9,3.1c0.3,0.6,1.2,1.2,1.8,1.2c0.3,0,0.9,0,1.2-0.3l13.3-7.7
			c1.2-0.6,1.5-2.1,0.9-3.1C22.8,66.3,21.3,65.7,20.4,66.3z"/>
		<path fill="#0D0F0F" d="M78.4,37.1c0.3,0,0.9,0,1.2-0.3l13.3-7.7c1.2-0.6,1.5-2.1,0.9-3.1c-0.6-1.2-2.1-1.5-3-0.9l-13.3,7.7
			c-1.2,0.6-1.5,2.1-0.9,3.1C76.9,36.8,77.8,37.1,78.4,37.1z"/>
		<path fill="#0D0F0F" d="M75.1,7.4c-1.2-0.6-2.4-0.3-3,0.9l-7.6,13.5c-0.6,1.2-0.3,2.5,0.9,3.1c0.3,0.3,0.6,0.3,1.2,0.3
			c0.9,0,1.5-0.3,1.8-1.2L76,10.4C76.6,9.5,76.3,8,75.1,7.4z"/>
		<path fill="#0D0F0F" d="M50,20.5c1.2,0,2.1-0.9,2.1-2.1V3.1c0-1.2-0.9-2.1-2.1-2.1c-1.2,0-2.1,0.9-2.1,2.1v15.3
			C47.9,19.3,48.8,20.5,50,20.5z"/>
		<path fill="#0D0F0F" d="M33.4,24.8c0.3,0,0.9,0,1.2-0.3c1.2-0.6,1.5-2.1,0.9-3.1L27.9,8c-0.6-1.2-2.1-1.5-3-0.9
			c-1.2,0.6-1.5,2.1-0.9,3.1l7.6,13.5C31.9,24.5,32.8,24.8,33.4,24.8z"/>
		<path fill="#0D0F0F" d="M92.9,74.2l-13.3-7.7c-1.2-0.6-2.4-0.3-3,0.9c-0.6,1.2-0.3,2.5,0.9,3.1l13.3,7.7c0.3,0.3,0.6,0.3,1.2,0.3
			c0.9,0,1.5-0.3,1.8-1.2C94.4,76.1,93.8,74.9,92.9,74.2z"/>
		<path fill="#0D0F0F" d="M22.5,32.8L9.2,25.2c-1.2-0.6-2.4-0.3-3,0.9c-0.6,1.2-0.3,2.5,0.9,3.1l13.3,7.7c0.3,0.3,0.6,0.3,1.2,0.3
			c0.9,0,1.5-0.3,1.8-1.2C24,35,23.7,33.4,22.5,32.8z"/>
	</g>
</g>
</svg>
