<?xml version="1.0" encoding="utf-8"?>
<!-- Generator: Adobe Illustrator 18.1.1, SVG Export Plug-In . SVG Version: 6.00 Build 0)  -->
<svg version="1.1" id="Слой_1" xmlns="http://www.w3.org/2000/svg" xmlns:xlink="http://www.w3.org/1999/xlink" x="0px" y="0px"
	 viewBox="0 0 100 100" enable-background="new 0 0 100 100" xml:space="preserve">
<g>
	<g>
		<g>
			<path fill="#0D0F0F" d="M12.3,64.6c-1.1-3.7-1.7-7.6-1.7-11.5c0-17.1,11.5-31.7,27.5-36.5v4.8l21.1-10.7L38.1,0v7.6
				c-20.5,5.3-36,23.6-36,45.5c0,3.1,0.3,6.2,0.8,9l0.8-4.5L12.3,64.6z"/>
			<path fill="#0D0F0F" d="M81.1,59.8l-1.4,23.6l19.7-12.9l-6.5-3.9c1.4-4.2,2-8.7,2-13.5c0-20.2-13.2-37.4-31.2-43.8l3.4,2.5L57,16
				c16.9,3.9,29.5,19.1,29.5,37.1c0,3.1-0.6,6.2-1.1,9L81.1,59.8z"/>
			<path fill="#0D0F0F" d="M76.6,78.7C69.6,86.2,59.8,91,48.5,91c-10.1,0-19.4-4.2-26.1-10.7l4.2-2.2L7,65.2l1.4,23.6l6.5-3.9
				c8.4,9,20.5,14.6,33.7,14.6c11.5,0,21.9-4.2,30.1-11.2l-3.4,1.1L76.6,78.7z"/>
			<g>
				<path fill="#0D0F0F" d="M52.5,26.5c3,0,5.5,0.2,7.2,0.7c1.8,0.4,3.2,0.9,4.2,1.4c0.8,0.4,1.5,0.9,2.3,1.5
					c0.7,0.6,1.4,1.4,2.1,2.3c0.6,0.9,1.1,2,1.5,3.3c0.4,1.2,0.5,2.7,0.5,4.3c0,1.5-0.2,2.9-0.5,4.1c-0.3,1.2-0.7,2.3-1.2,3.3
					c-0.5,1-1.1,1.8-1.7,2.6c-0.6,0.7-1.2,1.5-1.8,1.9c-1.2,1-2.1,1.8-3.6,2.5c-1.6,0.9-4.6,1.7-6.2,2.2c-1.2,0.3-3.9,0.5-5.1,0.6
					c-1.3,0.1,0.8-0.9-0.2-0.9h-2.6c-0.8,0-1.5,0.7-1.5,1.5v1.7c0,0.8,0.7,1.5,1.5,1.5h20.3c0.8,0,1.5,0.7,1.5,1.5v0
					c0,0.8-0.7,1.5-1.5,1.5H47.4c-0.8,0-1.5,0.7-1.5,1.5v9.4c0,0.7,0.5,1.3,1.2,1.5l5.7,1c0.7,0.1,1.2,0.7,1.2,1.5v0.2
					c0,0.8-0.7,1.5-1.5,1.5H32.8c-0.8,0-1.5-0.7-1.5-1.5v-0.2c0-0.7,0.5-1.3,1.2-1.4l5-0.9c0.7-0.1,1.2-0.7,1.2-1.4v-9.5
					c0-0.8-0.7-1.5-1.5-1.5h-4.5c-0.8,0-1.5-0.7-1.5-1.5v0c0-0.8,0.7-1.5,1.5-1.5h4.5c0.8,0,1.5-0.7,1.5-1.5v-1.7
					c0-0.8-0.7-1.5-1.5-1.5h-4.5c-0.8,0-1.5-0.7-1.5-1.5l0,0c0-0.8,0.7-1.5,1.5-1.5h4.5c0.8,0,1.5-0.7,1.5-1.5V32
					c0-0.7-0.5-1.3-1.2-1.4l-5-0.9c-0.7-0.1-1.2-0.7-1.2-1.4V28c0-0.8,0.7-1.5,1.5-1.5H52.5z M49.6,53.3c0.4,0-2.4-0.7,2-0.7
					c0.9-0.1,1.9-0.1,2.9-0.3c1-0.2,1.9-0.4,2.8-0.9c1-0.5,1.8-0.8,2.6-1.6c0.4-0.5,1.1-1.2,1.7-2.5c0.6-1.2,1-3,1-5.4
					c0-2.6-0.4-4.7-1.3-6.2c-0.9-1.5-1.8-2.7-2.8-3.5c-1.2-0.9-2.6-1.6-4.3-2.1c-1.7-0.4-3.5-0.7-5.5-0.7h-1.2
					c-0.8,0-1.5,0.7-1.5,1.5v20.9c0,0.8,0.7,1.5,1.5,1.5L49.6,53.3z"/>
			</g>
		</g>
	</g>
	<path fill="#0D0F0F" d="M51.9,54.9c0-1.3-1-2.3-2.3-2.3H33.5c-1.3,0-2.3,1-2.3,2.3s1,2.3,2.3,2.3h16.1
		C50.9,57.2,51.9,56.2,51.9,54.9z"/>
	<path fill="#0D0F0F" d="M69.9,62.8c0-1.2-1.8-2.2-4.3-2.2H35.2c-2.4,0-4.3,0.9-4.3,2.2s1.8,2.2,4.3,2.2h30.5
		C68.1,65.3,69.9,64.1,69.9,62.8z"/>
</g>
</svg>
