<?xml version="1.0" encoding="UTF-8" standalone="no"?>
<svg width="100px" height="100px" viewBox="0 0 100 100" version="1.1" xmlns="http://www.w3.org/2000/svg" xmlns:xlink="http://www.w3.org/1999/xlink" xmlns:sketch="http://www.bohemiancoding.com/sketch/ns">
    <!-- Generator: Sketch 3.3.2 (12043) - http://www.bohemiancoding.com/sketch -->
    <title>twitter</title>
    <desc>Created with Sketch.</desc>
    <defs>
        <linearGradient x1="50%" y1="0%" x2="50%" y2="100%" id="linearGradient-1">
            <stop stop-color="#FFB300" offset="0%"></stop>
            <stop stop-color="#ED5F5F" offset="100%"></stop>
        </linearGradient>
    </defs>
    <g id="Page-1" stroke="none" stroke-width="1" fill="none" fill-rule="evenodd" sketch:type="MSPage">
        <g id="twitter" sketch:type="MSLayerGroup" fill="url(#linearGradient-1)">
            <path d="M50,0.1 C22.4,0.1 0,22.5 0,50 C0,77.5 22.4,99.9 50,99.9 C77.6,99.9 100,77.5 100,50 C100,22.5 77.6,0.1 50,0.1 L50,0.1 Z M72.3,38.6 L72.3,40.1 C72.3,55.3 60.7,72.7 39.6,72.7 C33.1,72.7 27.1,70.8 22,67.5 C22.9,67.6 23.8,67.7 24.7,67.7 C30.1,67.7 35.1,65.9 39,62.8 C34,62.7 29.7,59.4 28.2,54.8 C28.9,54.9 29.6,55 30.4,55 C31.4,55 32.5,54.9 33.4,54.6 C28.1,53.5 24.2,48.9 24.2,43.3 L24.2,43.2 C25.8,44.1 27.5,44.6 29.4,44.6 C26.3,42.5 24.3,39 24.3,35.1 C24.3,33 24.9,31 25.9,29.3 C31.6,36.2 40.1,40.8 49.6,41.3 C49.4,40.5 49.3,39.6 49.3,38.7 C49.3,32.4 54.5,27.2 60.8,27.2 C64.1,27.2 67.1,28.6 69.2,30.8 C71.8,30.3 74.3,29.3 76.5,28 C75.6,30.7 73.8,32.9 71.4,34.3 C73.7,34 76,33.4 78,32.5 C76.5,35 74.6,37 72.3,38.6 L72.3,38.6 Z" id="Shape" sketch:type="MSShapeGroup"></path>
        </g>
    </g>
</svg>