<?xml version="1.0" encoding="UTF-8" standalone="no"?>
<svg width="100px" height="100px" viewBox="0 0 100 100" version="1.1" xmlns="http://www.w3.org/2000/svg" xmlns:xlink="http://www.w3.org/1999/xlink" xmlns:sketch="http://www.bohemiancoding.com/sketch/ns">
    <!-- Generator: Sketch 3.3.2 (12043) - http://www.bohemiancoding.com/sketch -->
    <title>vk</title>
    <desc>Created with Sketch.</desc>
    <defs>
        <linearGradient x1="50%" y1="0%" x2="50%" y2="100%" id="linearGradient-1">
            <stop stop-color="#FFB300" offset="0%"></stop>
            <stop stop-color="#EE5F5F" offset="100%"></stop>
        </linearGradient>
    </defs>
    <g id="Page-1" stroke="none" stroke-width="1" fill="none" fill-rule="evenodd" sketch:type="MSPage">
        <g id="vk" sketch:type="MSLayerGroup" fill="url(#linearGradient-1)">
            <path d="M49.9,0 C22.4,0 0,22.3 0,49.8 C0,77.3 22.4,99.6 49.9,99.6 C77.4,99.6 99.8,77.3 99.8,49.8 C99.8,22.3 77.5,0 49.9,0 L49.9,0 Z M75.3,55.2 C77.6,57.5 80.1,59.6 82.2,62.1 C83.1,63.2 84,64.4 84.7,65.6 C85.6,67.4 84.8,69.5 83.1,69.6 L72.9,69.6 C70.3,69.8 68.2,68.8 66.4,67 C65,65.6 63.7,64 62.3,62.5 C61.7,61.9 61.2,61.3 60.5,60.9 C59,60 57.8,60.3 57,61.7 C56.2,63.2 56,64.8 55.9,66.5 C55.8,68.9 55.1,69.5 52.6,69.7 C47.4,69.9 42.5,69.2 38,66.6 C34,64.3 30.9,61.1 28.1,57.4 C22.8,50.2 18.8,42.4 15.1,34.3 C14.3,32.5 14.9,31.5 16.9,31.5 C20.2,31.4 23.6,31.4 26.9,31.5 C28.3,31.5 29.2,32.3 29.7,33.6 C31.5,38 33.7,42.2 36.5,46.2 C37.2,47.2 38,48.3 39.1,49 C40.3,49.8 41.2,49.5 41.7,48.2 C42.1,47.4 42.2,46.5 42.3,45.6 C42.6,42.5 42.6,39.4 42.1,36.4 C41.8,34.5 40.7,33.2 38.8,32.9 C37.8,32.7 38,32.4 38.4,31.8 C39.2,30.8 40,30.2 41.5,30.2 L53.1,30.2 C54.9,30.6 55.3,31.4 55.6,33.2 L55.6,46 C55.6,46.7 56,48.8 57.2,49.3 C58.2,49.6 58.9,48.8 59.5,48.2 C62.3,45.3 64.2,41.8 66,38.2 C66.8,36.6 67.5,35 68.1,33.3 C68.6,32.1 69.3,31.5 70.7,31.5 L81.8,31.5 C82.1,31.5 82.5,31.5 82.8,31.6 C84.7,31.9 85.2,32.7 84.6,34.6 C83.7,37.5 81.9,39.9 80.2,42.3 C78.3,44.9 76.4,47.3 74.5,49.9 C73,52 73.2,53.2 75.3,55.2 L75.3,55.2 Z" id="Shape" sketch:type="MSShapeGroup"></path>
        </g>
    </g>
</svg>