<?xml version="1.0" encoding="UTF-8" standalone="no"?>
<svg width="561px" height="203px" viewBox="0 0 561 203" version="1.1" xmlns="http://www.w3.org/2000/svg" xmlns:xlink="http://www.w3.org/1999/xlink" xmlns:sketch="http://www.bohemiancoding.com/sketch/ns">
    <!-- Generator: Sketch 3.3.2 (12043) - http://www.bohemiancoding.com/sketch -->
    <title>Path 1</title>
    <desc>Created with Sketch.</desc>
    <defs></defs>
    <g id="Page-1" stroke="none" stroke-width="1" fill="none" fill-rule="evenodd" sketch:type="MSPage">
        <path d="M183.554854,29.2386795 C183.878958,25.037075 184.14376,20.8409046 184.34375,16.6523438 L178.89795,28.09909 C169.89108,25.6712425 161.400852,22.1885263 151.511719,19.515625 C133.583509,14.6698683 118.21731,14.7198742 98.7070312,16.3867188 C78.4415429,18.118084 58.244014,20.9324198 38.2617187,24.7265625 C25.6161209,27.1276482 13.6552652,31.9714454 3.87109375,40.359375 C-4.92020743,47.896121 6.7642848,66.3458714 16.0273437,66.4101562 C64.2408482,66.7447539 112.456644,66.4190744 160.67134,66.4103345 L99.5820312,194.816406 C128.215738,210.743906 151.087601,198.850623 157.246094,172.933594 C165.763098,137.091145 174.59364,99.7080998 179.889651,62.3045441 L436.367188,1.3125 C436.135417,4.60026042 436.361804,7.95288133 435.671875,11.1757812 C435.409484,12.4015031 434.588619,13.5524417 433.585938,14.3046875 C431.722757,15.7025094 429.659399,17.2657532 427.335938,17.4296875 C399.940271,19.3626181 372.368725,18.2254262 345.003906,20.5546875 C234.992051,29.9187675 325.05416,34.7474073 197.363281,30.9765625 C192.440392,30.8311845 187.90421,30.1870322 183.554854,29.2386795 L183.554854,29.2386795 Z M163.792969,157.679688 C201.563783,154.524734 186.640499,157.46875 234.621094,142.046875 C253.121248,136.100574 256.246059,129.272478 254.074219,109.742188 C253.571529,105.221747 250.671497,101.845063 241.914062,108.699219 C214.402535,130.231587 214.435354,147.352451 216.207031,179.21875 C216.234324,179.709652 216.75834,180.261719 217.25,180.261719 C237.271358,180.261719 261.552849,169.789159 269.707031,150.382812 C270.005275,149.673015 269.069662,147.62162 268.707031,148.300781 C250.266227,182.838094 276.481464,191.097366 298.929688,167.753906 C310.592897,155.625567 325.666081,107.279493 320.464844,91.6757812 C318.351824,85.3367233 318.027572,104.830095 317.339844,111.476562 C315.942775,124.978358 311.924886,138.698799 314.214844,152.078125 C314.781362,155.388066 320.957974,152.50298 324.289062,152.078125 C326.467306,151.800306 328.575,150.978125 330.539062,149.996094 C334.856364,147.837443 339.058681,145.418257 343.046875,142.699219 C346.722437,140.193325 350.816101,137.934375 353.46875,134.363281 C356.989529,129.623478 358.994951,123.8956 361.109375,118.382812 C362.256295,115.392529 362.820781,112.184622 363.195312,109.003906 C363.520255,106.244326 363.749081,103.390874 363.195312,100.667969 C363.082691,100.114201 361.607054,100.113098 361.5,100.667969 L361.5,107.222656 C359.472607,117.730805 355.605728,127.878652 354.203125,138.488281 C353.157711,146.396041 350.767166,155.219376 354.203125,162.417969 C355.843142,165.853928 362.189407,164.058753 365.625,162.417969 C367.917366,161.323172 367.253716,157.51886 368.753906,155.46875 C370.78414,152.6943 373.920677,150.877393 376.046875,148.175781 C379.026992,144.389154 381.346354,140.126302 383.996094,136.101562 L163.792969,157.679688 Z M438.839844,103.53125 C427.144531,103.53125 413.907946,97.7281644 403.753906,103.53125 L399.585938,104.570313 C388.031984,111.173456 381.679371,158.180809 395.417969,161.195312 C427.000464,168.125098 429.69429,87.7134139 430.503906,85.4648438 C433.249781,77.8386524 429.933789,101.695856 430.503906,109.78125 C430.635472,111.647111 431.498697,113.470132 432.585938,114.992188 C435.017648,118.3964 437.587254,121.849961 440.925781,124.371094 C443.413916,126.250041 446.528924,127.365913 449.609375,127.847656 C454.070773,128.545362 458.763414,128.893532 463.15625,127.847656 C466.345103,127.088433 468.888689,124.623335 471.496094,122.636719 C476.201617,119.051518 480.859931,115.354913 485.042969,111.171875 C501.026554,95.1882901 517.798162,79.824291 531.941406,62.1914063 C542.753059,48.7121342 550.334635,32.9335938 559.53125,18.3046875 L438.839844,103.53125 Z" id="Path-1" stroke="#979797" sketch:type="MSShapeGroup"></path>
    </g>
</svg>